<svg width="20" height="20" viewBox="0 0 20 20" fill="none" xmlns="http://www.w3.org/2000/svg">
<path d="M10 16.6667L14.4444 12.2222L12.8889 10.6667L11.1111 12.4444V7.77778H8.88889V12.4444L7.11111 10.6667L5.55556 12.2222L10 16.6667ZM2.22222 5.55556V17.7778H17.7778V5.55556H2.22222ZM2.22222 20C1.61111 20 1.08333 19.787 0.638889 19.3611C0.212963 18.9167 0 18.3889 0 17.7778V3.91667C0 3.65741 0.0370373 3.40741 0.111112 3.16667C0.203704 2.92593 0.333334 2.7037 0.5 2.5L1.88889 0.805556C2.09259 0.546296 2.34259 0.351852 2.63889 0.222222C2.9537 0.074074 3.27778 0 3.61111 0H16.3889C16.7222 0 17.037 0.074074 17.3333 0.222222C17.6481 0.351852 17.9074 0.546296 18.1111 0.805556L19.5 2.5C19.6667 2.7037 19.787 2.92593 19.8611 3.16667C19.9537 3.40741 20 3.65741 20 3.91667V17.7778C20 18.3889 19.7778 18.9167 19.3333 19.3611C18.9074 19.787 18.3889 20 17.7778 20H2.22222ZM2.66667 3.33333H17.3333L16.3889 2.22222H3.61111L2.66667 3.33333Z" fill="#ffffff"/>
</svg>
