<svg width="30" height="30" viewBox="0 0 30 30" fill="none" xmlns="http://www.w3.org/2000/svg">
<path d="M15 9.66675C17.2091 9.66675 19 7.87589 19 5.66675C19 3.45761 17.2091 1.66675 15 1.66675C12.7908 1.66675 11 3.45761 11 5.66675C11 7.87589 12.7908 9.66675 15 9.66675ZM15 9.66675V28.3334M15 28.3334C11.4637 28.3334 8.07235 26.9287 5.57187 24.4282C3.07138 21.9277 1.66663 18.5363 1.66663 15.0001H5.66663M15 28.3334C18.5362 28.3334 21.9276 26.9287 24.4281 24.4282C26.9285 21.9277 28.3333 18.5363 28.3333 15.0001H24.3333" stroke="black" stroke-width="3" stroke-linecap="round" stroke-linejoin="round"/>
</svg>
