<svg width="28" height="30" viewBox="0 0 28 30" fill="none" xmlns="http://www.w3.org/2000/svg">
<path d="M14 13.7569L1.19995 15.3357C1.89119 19.4428 2.64771 21.7477 4.39995 25.8611C8.50855 24.4248 10.6261 24.3738 14 25.8611C17.8254 27.6438 19.9228 27.675 23.5999 25.8611C25.5526 21.5812 26.1999 19.2895 26.7999 15.3357L14 13.7569Z" fill="black"/>
<path fill-rule="evenodd" clip-rule="evenodd" d="M14 11.1255L7.59995 11.9149L4.39995 12.3096L5.46662 4.81026H22.5333L23.5999 12.3096L20.4 11.9149L14 11.1255ZM15.0666 9.02043V5.8628H20.4L20.9333 9.02043H15.0666ZM7.06662 9.02043L7.59995 5.8628H12.9333V9.02043H7.06662Z" fill="black"/>
<path d="M12.9333 2.70518V0.600098H15.0666V2.70518H12.9333Z" fill="black"/>
<path d="M1.19995 15.3357L1.13874 14.8394L0.620166 14.9034L0.706886 15.4187L1.19995 15.3357ZM26.7999 15.3357L27.2943 15.4107L27.3714 14.9024L26.8612 14.8394L26.7999 15.3357ZM14 13.7569L14.0612 13.2606L14 13.2531L13.9387 13.2606L14 13.7569ZM4.39995 25.8611L3.93995 26.057L4.1233 26.4875L4.56495 26.3331L4.39995 25.8611ZM23.5999 25.8611L23.8211 26.3095L23.9809 26.2307L24.0548 26.0686L23.5999 25.8611ZM14 25.8611L14.2112 25.4078L14.2016 25.4036L14 25.8611ZM14 11.1255L14.0612 10.6293L14 10.6217L13.9387 10.6293L14 11.1255ZM4.39995 12.3096L3.90493 12.2392L3.81296 12.8858L4.46116 12.8059L4.39995 12.3096ZM23.5999 12.3096L23.5387 12.8059L24.1869 12.8858L24.095 12.2392L23.5999 12.3096ZM5.46662 4.81026V4.31026C5.21768 4.31026 5.00665 4.49339 4.9716 4.73985L5.46662 4.81026ZM22.5333 4.81026L23.0283 4.73985C22.9932 4.49339 22.7822 4.31026 22.5333 4.31026V4.81026ZM7.59995 5.8628V5.3628H7.17732L7.10693 5.77953L7.59995 5.8628ZM7.06662 9.02043L6.5736 8.93715L6.47508 9.52043H7.06662V9.02043ZM12.9333 9.02043V9.52043H13.4333V9.02043H12.9333ZM12.9333 5.8628H13.4333V5.3628H12.9333V5.8628ZM15.0666 9.02043H14.5666V9.52043H15.0666V9.02043ZM15.0666 5.8628V5.3628H14.5666V5.8628H15.0666ZM20.4 5.8628L20.893 5.77953L20.8226 5.3628H20.4V5.8628ZM20.9333 9.02043V9.52043H21.5248L21.4263 8.93715L20.9333 9.02043ZM12.9333 2.70518H12.4333V3.20518H12.9333V2.70518ZM12.9333 0.600098V0.100098C12.6571 0.100098 12.4333 0.323955 12.4333 0.600098L12.9333 0.600098ZM15.0666 0.600098H15.5666C15.5666 0.323955 15.3428 0.100098 15.0666 0.100098V0.600098ZM15.0666 2.70518V3.20518H15.5666V2.70518H15.0666ZM1.26116 15.8319L14.0612 14.2531L13.9387 13.2606L1.13874 14.8394L1.26116 15.8319ZM13.9387 14.2531L26.7387 15.8319L26.8612 14.8394L14.0612 13.2606L13.9387 14.2531ZM0.706886 15.4187C1.40617 19.5736 2.1763 21.9168 3.93995 26.057L4.85995 25.6651C3.11913 21.5785 2.37622 19.312 1.69302 15.2527L0.706886 15.4187ZM26.3056 15.2607C25.7128 19.1671 25.0791 21.4143 23.1451 25.6535L24.0548 26.0686C26.026 21.748 26.6871 19.4118 27.2943 15.4107L26.3056 15.2607ZM23.3788 25.4127C21.5721 26.3039 20.209 26.7134 18.8569 26.7098C17.5014 26.7062 16.0985 26.2874 14.2111 25.4079L13.7888 26.3143C15.7268 27.2174 17.2853 27.7056 18.8542 27.7098C20.4265 27.714 21.9506 27.2322 23.8211 26.3095L23.3788 25.4127ZM14.2016 25.4036C12.4752 24.6425 11.0309 24.258 9.4733 24.2648C7.92559 24.2715 6.30698 24.6648 4.23495 25.3891L4.56495 26.3331C6.60152 25.6211 8.09597 25.2708 9.47765 25.2648C10.8494 25.2588 12.1508 25.5924 13.7983 26.3186L14.2016 25.4036ZM26.5268 27.0211C23.0255 29.3053 18.3408 29.5503 14.2212 27.5178L13.7787 28.4146C18.1925 30.5922 23.2552 30.3494 27.0731 27.8587L26.5268 27.0211ZM14.2212 27.5178C12.0067 26.4252 9.98559 26.1185 8.05055 26.3856C6.12614 26.6513 4.32419 27.4795 2.53548 28.5944L3.06443 29.443C4.79299 28.3656 6.45771 27.615 8.18731 27.3762C9.90629 27.1389 11.7266 27.4021 13.7787 28.4146L14.2212 27.5178ZM7.66116 12.4112L14.0612 11.6217L13.9387 10.6293L7.53874 11.4187L7.66116 12.4112ZM13.9387 11.6217L20.3387 12.4112L20.4612 11.4187L14.0612 10.6293L13.9387 11.6217ZM4.46116 12.8059L7.66116 12.4112L7.53874 11.4187L4.33874 11.8134L4.46116 12.8059ZM20.3387 12.4112L23.5387 12.8059L23.6612 11.8134L20.4612 11.4187L20.3387 12.4112ZM4.89497 12.38L5.96164 4.88067L4.9716 4.73985L3.90493 12.2392L4.89497 12.38ZM5.46662 5.31026H22.5333V4.31026H5.46662V5.31026ZM22.0383 4.88067L23.1049 12.38L24.095 12.2392L23.0283 4.73985L22.0383 4.88067ZM7.10693 5.77953L6.5736 8.93715L7.55963 9.1037L8.09297 5.94607L7.10693 5.77953ZM7.06662 9.52043H12.9333V8.52043H7.06662V9.52043ZM13.4333 9.02043V5.8628H12.4333V9.02043H13.4333ZM12.9333 5.3628H7.59995V6.3628H12.9333V5.3628ZM15.5666 9.02043V5.8628H14.5666V9.02043H15.5666ZM15.0666 6.3628H20.4V5.3628H15.0666V6.3628ZM19.9069 5.94607L20.4403 9.1037L21.4263 8.93715L20.893 5.77953L19.9069 5.94607ZM20.9333 8.52043H15.0666V9.52043H20.9333V8.52043ZM13.4333 2.70518V0.600098H12.4333V2.70518H13.4333ZM12.9333 1.1001H15.0666V0.100098H12.9333V1.1001ZM14.5666 0.600098V2.70518H15.5666V0.600098H14.5666ZM15.0666 2.20518H12.9333V3.20518H15.0666V2.20518Z" fill="black"/>
</svg>
